<?xml version="1.0" standalone="no"?><!DOCTYPE svg PUBLIC "-//W3C//DTD SVG 1.1//EN" "http://www.w3.org/Graphics/SVG/1.1/DTD/svg11.dtd"><svg t="1630547115409" class="icon" viewBox="0 0 1024 1024" version="1.1" xmlns="http://www.w3.org/2000/svg" p-id="5763" xmlns:xlink="http://www.w3.org/1999/xlink" width="200" height="200"><defs><style type="text/css"></style></defs><path d="M498.468571 978.285714a73.142857 73.142857 0 0 1-62.537142-34.011428l-177.737143-283.062857a1118.72 1118.72 0 0 1-84.48-157.988572 253.074286 253.074286 0 0 1-22.674286-103.131428 330.971429 330.971429 0 0 1 126.171429-259.291429A358.034286 358.034286 0 0 1 581.851429 73.142857a333.531429 333.531429 0 0 1 264.045714 336.457143 222.354286 222.354286 0 0 1-21.211429 91.794286 1217.097143 1217.097143 0 0 1-84.114285 156.891428l-179.565715 286.354286a73.142857 73.142857 0 0 1-62.537143 33.645714z m0-877.714285A316.708571 316.708571 0 0 0 299.885714 169.325714a294.765714 294.765714 0 0 0-112.64 230.765715 215.771429 215.771429 0 0 0 19.748572 88.502857 1087.268571 1087.268571 0 0 0 81.92 152.868571l177.737143 283.062857a36.571429 36.571429 0 0 0 31.451428 16.822857 36.571429 36.571429 0 0 0 31.451429-16.822857l179.565714-286.354285a1181.622857 1181.622857 0 0 0 81.554286-151.771429 186.148571 186.148571 0 0 0 17.92-77.897143A296.96 296.96 0 0 0 573.805714 109.714286a340.48 340.48 0 0 0-75.337143-9.142857z m6.582858 477.257142a167.497143 167.497143 0 0 1-169.691429-164.571428 169.691429 169.691429 0 0 1 339.748571 0 167.497143 167.497143 0 0 1-170.057142 164.571428z m0-292.571428a130.925714 130.925714 0 0 0-133.12 128 133.485714 133.485714 0 0 0 266.605714 0 130.925714 130.925714 0 0 0-133.485714-128z" p-id="5764"></path></svg>