<svg t="1628749821188" fill="currentColor" width="1em" height="1em" viewBox="0 0 1024 1024" version="1.1" xmlns="http://www.w3.org/2000/svg" p-id="5177"><path d="M736.0256 0H288.0768A96 96 0 0 0 192.0768 96v832A96 96 0 0 0 288.0768 1024h447.9488a96 96 0 0 0 95.8464-96V96A96 96 0 0 0 736.0256 0zM511.9744 959.9488A64 64 0 1 1 575.9744 896a64 64 0 0 1-64 63.9488z m224-215.9616a24.1152 24.1152 0 0 1-24.0128 24.0128H312.2944a24.1152 24.1152 0 0 1-24.0128-24.0128V120.0128a24.1152 24.1152 0 0 1 24.0128-24.0128h399.872a24.1152 24.1152 0 0 1 24.0128 24.0128z" fill="#787878" p-id="5178"></path></svg>
