<svg t="1628749984444" fill="currentColor" width="1em" height="1em" viewBox="0 0 1024 1024" version="1.1" xmlns="http://www.w3.org/2000/svg" p-id="5305"><path d="M27.984281 438.11582v-49.336535A72.209815 72.209815 0 0 1 101.014662 318.056746c12.052064 0 15.847182-4.00026 19.129447-14.77019C167.5318 147.84057 268.410142 45.577522 427.292249 10.344466 576.737846-22.324321 705.515435 23.268382 810.086325 134.608942a392.487012 392.487012 0 0 1 93.647103 172.216305c2.051415 7.795378 5.128538 11.590496 14.10348 10.821216 41.900155-3.641262 79.492339 33.232926 78.056348 76.004933-0.974422 30.258374 0 60.619319 0 90.928978a75.492079 75.492079 0 0 1-74.004803 76.569072c-38.053752 1.641132-74.774084-32.258504-75.851077-70.26097-0.871851-29.181381-1.33342-58.362762-2.00013-87.544144a330.380417 330.380417 0 0 0-76.210074-205.141519c-50.464814-62.004024-114.674109-102.57076-193.551024-117.033237C456.781343 59.732287 356.210713 93.324211 273.128397 178.150229a320.072056 320.072056 0 0 0-91.954686 198.833418 979.550756 979.550756 0 0 0-0.564139 137.701245c2.102701 41.951441 43.643858 78.158919 85.69787 79.287198 13.744482 0.358998 26.206829 3.487406 32.771357 17.385743a29.07881 29.07881 0 0 1-13.180342 38.976889 28.719813 28.719813 0 0 1-14.000909 2.974552 147.907036 147.907036 0 0 1-96.519085-35.489483 144.214488 144.214488 0 0 1-40.361594-52.516229c-2.974552-6.718385-6.000389-8.923656-14.000909-7.026097C72.346135 569.714105 28.958704 535.3529 27.984281 485.195799v-47.079979zM511.964411 1023.743573h-420.540115c-28.4121 0-38.771747-10.257076-38.771747-38.976889v-83.287457a203.8081 203.8081 0 0 1 174.062579-202.218253c28.668527-4.205401 58.208906-2.153986 87.185146-2.76941h32.873929a58.208906 58.208906 0 0 1 51.593092 27.694105c18.975591 27.694105 37.643469 55.593352 56.413918 83.287457 29.181381 42.669436 80.107763 42.977148 109.801998 0.717995q29.232667-41.643728 58.311477-83.441313a60.414178 60.414178 0 0 1 53.798364-28.155673c32.514931 0.512854 65.029862 0 97.442221 0.410283 92.723967 1.897559 176.934561 72.773954 192.166319 164.574784 5.128538 31.335367 3.538691 63.850298 4.76954 95.852375 0.410283 11.334069 0 22.668138 0 33.950921 0 19.642301-12.20592 31.899506-32.002077 32.617502h-16.411321z m-0.76928-59.491041h382.281221a31.950792 31.950792 0 0 0 10.821216-0.358997c2.923267-1.128278 7.026097-4.615684 6.974811-7.026097 0-27.283822 1.282134-54.926642-2.410413-82.056608-8.513373-62.15788-66.209425-114.571539-128.675018-118.315372-31.284082-1.897559-62.72202-1.128278-94.057386-2.051415a19.898727 19.898727 0 0 0-18.770449 10.257076c-20.052584 29.181381-39.84874 58.516618-61.132173 86.774863a114.930536 114.930536 0 0 1-94.570241 46.926123c-43.849 0.307712-78.774344-18.770449-103.801609-55.080498-18.20631-26.411971-35.899766-53.28551-54.311217-79.543625a20.514152 20.514152 0 0 0-13.488055-8.667229c-31.694365-0.256427-63.542586-0.871851-95.13438 1.435991a139.701375 139.701375 0 0 0-127.854452 110.878991c-5.590106 26.719683-3.743833 55.029213-4.820826 82.620747-0.512854 14.154765 0 14.20605 14.616334 14.20605z" fill="#707070" p-id="5306"></path><path d="M511.605414 157.225794a252.580496 252.580496 0 1 1-252.375355 252.785638v-0.307712a251.298362 251.298362 0 0 1 250.118798-252.477926z m0 445.516095c100.775772 2.051415 193.653595-81.287327 194.012592-192.730457a193.602309 193.602309 0 1 0-194.474161 192.730457h0.461569z" p-id="5307"></path></svg>
